# xmcd CD database file
#
# Track frame offsets:
#	150
#	11452
#	28486
#	44763
#	57042
#	75097
#	90307
#
# Disc length: 1344 seconds
#
# Revision: 0
# Processed by: cddbd v1.5.1PL0 Copyright (c) Steve Scherf et al.
# Submitted via: CDex 1.51
#
DISCID=47053e07
DTITLE=Travis Sinclair - Rhythm Of The Highway Tamworth Bonus Disc
DYEAR=2003
DGENRE=Country
TTITLE0=All I Have To Do Is Dream (Duet With Sovereign)
TTITLE1=Still Riding That Line (Live)
TTITLE2=I'm From The Country (Duet With Lee Kernaghan)
TTITLE3=Travellin' Light
TTITLE4=Brave Aussie Boys
TTITLE5=Kick The Kenny (Club Remix)
TTITLE6=All I Have To Do Is Dream (Acapella)
EXTD=YEAR: 2003
EXTT0=
EXTT1=
EXTT2=
EXTT3=
EXTT4=
EXTT5=
EXTT6=
PLAYORDER=
